# xmcd
#
# Track frame offsets:
#	150
#	17567
#	36172
#	53297
#	72267
#	90557
#	107690
#	115852
#	117807
#	136532
#	153305
#	176315
#	192985
#	210137
#
# Disc length: 3038 seconds
#
# Revision: 1
# Processed by: cddbd v1.5.1PL0 Copyright (c) Steve Scherf et al.
# Submitted via: EasyCDDAExtractor 8.1.4.1
#
DISCID=a00bdc0e
DTITLE=Omar - Best By Far
DYEAR=2000
DGENRE=Acid Jazz
TTITLE0=I Guess
TTITLE1=Something Real
TTITLE2=Essensual
TTITLE3=Be Thankful (Duet With Erykah Badu)
TTITLE4=Best By Far
TTITLE5=To The Top
TTITLE6=Goodness
TTITLE7=Prologue
TTITLE8=Tell Me
TTITLE9=Syleste
TTITLE10=Come On (With Kele Le Roc)
TTITLE11=Emporium
TTITLE12=In The Morning
TTITLE13=Syleste (Lounge Lizzard Mix)
EXTD=
EXTT0=
EXTT1=
EXTT2=
EXTT3=
EXTT4=
EXTT5=
EXTT6=
EXTT7=
EXTT8=
EXTT9=
EXTT10=
EXTT11=
EXTT12=
EXTT13=
PLAYORDER=
